<?xml version="1.0" encoding="utf-8"?>
<!-- Generator: Adobe Illustrator 25.4.1, SVG Export Plug-In . SVG Version: 6.00 Build 0)  -->
<svg version="1.1" id="Layer_1" xmlns="http://www.w3.org/2000/svg" xmlns:xlink="http://www.w3.org/1999/xlink" x="0px" y="0px"
	 viewBox="0 0 425.2 425.2" style="enable-background:new 0 0 425.2 425.2;" xml:space="preserve">
<style type="text/css">
	.st0{fill:#FFFFFF;}
	.st1{fill:none;stroke:#FFFFFF;stroke-width:5;stroke-linecap:round;stroke-linejoin:round;stroke-dasharray:0,15;}
</style>
<g>
	<g>
		<path class="st0" d="M419.3,263.1c0,57.1-46.3,103.4-103.4,103.4s-103.4-46.3-103.4-103.4"/>
	</g>
</g>
<g>
	<g>
		<path class="st0" d="M6,263.1C6,206,52.3,159.7,109.4,159.7S212.8,206,212.8,263.1"/>
	</g>
</g>
<g>
	<g>
		<path class="st0" d="M419.3,160.7c0,57.1-46.3,103.4-103.4,103.4s-103.4-46.3-103.4-103.4"/>
	</g>
</g>
<g>
	<g>
		<path class="st0" d="M5.9,160.7c0-57.1,46.3-103.4,103.4-103.4s103.4,46.3,103.4,103.4"/>
	</g>
</g>
<line class="st1" x1="26.2" y1="256.6" x2="26.2" y2="390.2"/>
<line class="st1" x1="59" y1="256.6" x2="59" y2="390.2"/>
<line class="st1" x1="91.7" y1="256.6" x2="91.7" y2="390.2"/>
<line class="st1" x1="124.5" y1="256.6" x2="124.5" y2="390.2"/>
<line class="st1" x1="157.2" y1="256.6" x2="157.2" y2="390.2"/>
<line class="st1" x1="190" y1="256.6" x2="190" y2="390.2"/>
</svg>
