<?xml version="1.0" encoding="utf-8"?>
<!-- Generator: Adobe Illustrator 25.4.1, SVG Export Plug-In . SVG Version: 6.00 Build 0)  -->
<svg version="1.1" id="Layer_1" xmlns="http://www.w3.org/2000/svg" xmlns:xlink="http://www.w3.org/1999/xlink" x="0px" y="0px"
	 viewBox="0 0 425.2 425.2" style="enable-background:new 0 0 425.2 425.2;" xml:space="preserve">
<style type="text/css">
	.st0{fill:#F37041;}
	.st1{fill:none;}
	.st2{fill:#FFFFFF;}
	.st3{fill:none;stroke:#FFFFFF;stroke-width:5;stroke-linecap:round;stroke-linejoin:round;stroke-dasharray:10,20;}
</style>
<g>
	<g>
		<path class="st0" d="M315.9,263.1c57.1,0,103.4-46.3,103.4-103.4S373,56.3,315.9,56.3s-103.4,46.3-103.4,103.4
			S258.8,263.1,315.9,263.1"/>
	</g>
	<g>
		<circle class="st1" cx="315.9" cy="159.7" r="103.4"/>
	</g>
</g>
<g>
	<g>
		<path class="st2" d="M419.3,263.1c0,57.1-46.3,103.4-103.4,103.4s-103.4-46.3-103.4-103.4"/>
	</g>
</g>
<g>
	<g>
		<path class="st2" d="M419.3,160.7c0,57.1-46.3,103.4-103.4,103.4s-103.4-46.3-103.4-103.4"/>
	</g>
</g>
<g>
	<g>
		<path class="st2" d="M5.9,160.7c0-57.1,46.3-103.4,103.4-103.4s103.4,46.3,103.4,103.4"/>
	</g>
</g>
<line class="st3" x1="26.2" y1="249.6" x2="26.2" y2="383.2"/>
<line class="st3" x1="58.4" y1="249.6" x2="58.4" y2="383.2"/>
<line class="st3" x1="90.6" y1="249.6" x2="90.6" y2="383.2"/>
<line class="st3" x1="122.8" y1="249.6" x2="122.8" y2="383.2"/>
<line class="st3" x1="154.9" y1="249.6" x2="154.9" y2="383.2"/>
<line class="st3" x1="187.1" y1="249.6" x2="187.1" y2="383.2"/>
<g>
	<g>
		<path class="st2" d="M6,263.1C6,206,52.3,159.7,109.4,159.7S212.8,206,212.8,263.1"/>
	</g>
</g>
</svg>
