<?xml version="1.0" encoding="utf-8"?>
<!-- Generator: Adobe Illustrator 25.4.1, SVG Export Plug-In . SVG Version: 6.00 Build 0)  -->
<svg version="1.1" id="Layer_1" xmlns="http://www.w3.org/2000/svg" xmlns:xlink="http://www.w3.org/1999/xlink" x="0px" y="0px"
	 viewBox="0 0 425.2 425.2" style="enable-background:new 0 0 425.2 425.2;" xml:space="preserve">
<style type="text/css">
	.st0{fill:#FFFFFF;}
	.st1{fill:none;stroke:#FFFFFF;stroke-width:5;stroke-linecap:round;stroke-linejoin:round;}
	.st2{fill:none;stroke:#F37041;stroke-width:5;stroke-linecap:round;stroke-linejoin:round;stroke-miterlimit:10;}
</style>
<g>
	<g>
		<path class="st0" d="M419.3,263.1c0,57.1-46.3,103.4-103.4,103.4s-103.4-46.3-103.4-103.4"/>
	</g>
</g>
<g>
	<g>
		<path class="st0" d="M419.3,160.7c0,57.1-46.3,103.4-103.4,103.4s-103.4-46.3-103.4-103.4"/>
	</g>
</g>
<g>
	<g>
		<path class="st0" d="M5.9,160.7c0-57.1,46.3-103.4,103.4-103.4s103.4,46.3,103.4,103.4"/>
	</g>
</g>
<line class="st1" x1="41.2" y1="259.7" x2="0" y2="375.6"/>
<line class="st1" x1="74.7" y1="259.7" x2="33.5" y2="375.6"/>
<path class="st1" d="M65.4,375.6"/>
<polyline class="st2" points="102.9,259.7 82.9,314.8 108.1,314.8 85.8,375.6 "/>
<path class="st1" d="M123.3,259.7"/>
<line class="st1" x1="155.6" y1="259.7" x2="114.4" y2="375.6"/>
<line class="st1" x1="189.1" y1="259.7" x2="147.9" y2="375.6"/>
<g>
	<g>
		<path class="st0" d="M6,263.1C6,206,52.3,159.7,109.4,159.7S212.8,206,212.8,263.1"/>
	</g>
</g>
</svg>
