<?xml version="1.0" encoding="utf-8"?>
<!-- Generator: Adobe Illustrator 25.4.1, SVG Export Plug-In . SVG Version: 6.00 Build 0)  -->
<svg version="1.1" id="Layer_1" xmlns="http://www.w3.org/2000/svg" xmlns:xlink="http://www.w3.org/1999/xlink" x="0px" y="0px"
	 viewBox="0 0 425.2 425.2" style="enable-background:new 0 0 425.2 425.2;" xml:space="preserve">
<style type="text/css">
	.st0{fill:#FFFFFF;}
	.st1{fill:#575756;}
	.st2{fill:none;stroke:#FFFFFF;stroke-width:5;stroke-linecap:round;stroke-linejoin:round;}
	.st3{fill:none;stroke:#FFFFFF;stroke-width:5;stroke-linecap:round;stroke-linejoin:round;stroke-dasharray:0,14.8444;}
</style>
<g>
	<g>
		<path class="st0" d="M419.3,263.1c0,57.1-46.3,103.4-103.4,103.4s-103.4-46.3-103.4-103.4"/>
	</g>
</g>
<g>
	<g>
		<path class="st0" d="M6,263.1C6,206,52.3,159.7,109.4,159.7S212.8,206,212.8,263.1"/>
	</g>
</g>
<g>
	<g>
		<path class="st1" d="M419.3,160.7c0,57.1-46.3,103.4-103.4,103.4s-103.4-46.3-103.4-103.4"/>
	</g>
</g>
<g>
	<g>
		<path class="st1" d="M5.9,160.7c0-57.1,46.3-103.4,103.4-103.4s103.4,46.3,103.4,103.4"/>
	</g>
</g>
<g>
	<g>
		<line class="st2" x1="49.8" y1="245.7" x2="49.8" y2="245.7"/>
		<line class="st3" x1="44.7" y1="259.6" x2="6.6" y2="364.2"/>
		<line class="st2" x1="4.1" y1="371.2" x2="4.1" y2="371.2"/>
	</g>
</g>
<g>
	<g>
		<line class="st2" x1="77.9" y1="245.7" x2="77.9" y2="245.7"/>
		<line class="st3" x1="72.9" y1="259.6" x2="34.8" y2="364.2"/>
		<line class="st2" x1="32.2" y1="371.2" x2="32.2" y2="371.2"/>
	</g>
</g>
<g>
	<g>
		<line class="st2" x1="162.4" y1="245.7" x2="162.4" y2="245.7"/>
		<line class="st3" x1="157.3" y1="259.6" x2="119.2" y2="364.2"/>
		<line class="st2" x1="116.7" y1="371.2" x2="116.7" y2="371.2"/>
	</g>
</g>
<g>
	<g>
		<line class="st2" x1="190.5" y1="245.7" x2="190.5" y2="245.7"/>
		<line class="st3" x1="185.5" y1="259.6" x2="147.4" y2="364.2"/>
		<line class="st2" x1="144.8" y1="371.2" x2="144.8" y2="371.2"/>
	</g>
</g>
<polygon class="st0" points="99.1,325.3 78,325.3 97.5,271.6 118.6,271.6 "/>
<polygon class="st0" points="67.8,378 67.8,378 87.3,324.3 108.4,324.3 "/>
</svg>
