<?xml version="1.0" encoding="utf-8"?>
<!-- Generator: Adobe Illustrator 25.4.1, SVG Export Plug-In . SVG Version: 6.00 Build 0)  -->
<svg version="1.1" id="Layer_1" xmlns="http://www.w3.org/2000/svg" xmlns:xlink="http://www.w3.org/1999/xlink" x="0px" y="0px"
	 viewBox="0 0 425.2 425.2" style="enable-background:new 0 0 425.2 425.2;" xml:space="preserve">
<style type="text/css">
	.st0{fill:none;stroke:#FFFFFF;stroke-width:15;stroke-linecap:round;stroke-linejoin:round;stroke-miterlimit:10;}
</style>
<line class="st0" x1="214.5" y1="57.6" x2="214.5" y2="372.5"/>
<line class="st0" x1="179.4" y1="28" x2="214.5" y2="57.6"/>
<line class="st0" x1="249.6" y1="28" x2="214.5" y2="57.6"/>
<line class="st0" x1="179.4" y1="141.2" x2="214.5" y2="170.8"/>
<line class="st0" x1="249.6" y1="141.2" x2="214.5" y2="170.8"/>
<line class="st0" x1="151.6" y1="71.5" x2="214.5" y2="123.5"/>
<line class="st0" x1="277.4" y1="71.5" x2="214.5" y2="123.5"/>
<line class="st0" x1="249.6" y1="402.1" x2="214.5" y2="372.4"/>
<line class="st0" x1="179.4" y1="402.1" x2="214.5" y2="372.4"/>
<line class="st0" x1="249.6" y1="288.9" x2="214.5" y2="259.2"/>
<line class="st0" x1="179.4" y1="288.9" x2="214.5" y2="259.2"/>
<line class="st0" x1="277.4" y1="358.5" x2="214.5" y2="306.6"/>
<line class="st0" x1="151.6" y1="358.5" x2="214.5" y2="306.6"/>
<line class="st0" x1="350.8" y1="136.3" x2="78.1" y2="293.8"/>
<line class="st0" x1="358.9" y1="91.1" x2="350.8" y2="136.3"/>
<line class="st0" x1="394" y1="151.9" x2="350.8" y2="136.3"/>
<line class="st0" x1="307.3" y1="88.8" x2="293.8" y2="169.2"/>
<line class="st0" x1="370.2" y1="197.8" x2="293.8" y2="169.2"/>
<line class="st0" x1="70.1" y1="339" x2="78.2" y2="293.7"/>
<line class="st0" x1="34.9" y1="278.1" x2="78.2" y2="293.7"/>
<line class="st0" x1="121.6" y1="341.3" x2="135.2" y2="260.8"/>
<line class="st0" x1="58.7" y1="232.3" x2="135.2" y2="260.8"/>
<line class="st0" x1="78.2" y1="136.3" x2="350.9" y2="293.8"/>
<line class="st0" x1="34.9" y1="151.9" x2="78.2" y2="136.3"/>
<line class="st0" x1="70.1" y1="91.1" x2="78.2" y2="136.3"/>
<line class="st0" x1="58.7" y1="197.8" x2="135.2" y2="169.2"/>
<line class="st0" x1="121.6" y1="88.8" x2="135.2" y2="169.2"/>
<line class="st0" x1="394" y1="278.1" x2="350.8" y2="293.7"/>
<line class="st0" x1="358.9" y1="339" x2="350.8" y2="293.7"/>
<line class="st0" x1="370.2" y1="232.3" x2="293.8" y2="260.8"/>
<line class="st0" x1="307.3" y1="341.3" x2="293.8" y2="260.8"/>
</svg>
