<?xml version="1.0" encoding="utf-8"?>
<!-- Generator: Adobe Illustrator 25.4.1, SVG Export Plug-In . SVG Version: 6.00 Build 0)  -->
<svg version="1.1" id="Layer_1" xmlns="http://www.w3.org/2000/svg" xmlns:xlink="http://www.w3.org/1999/xlink" x="0px" y="0px"
	 viewBox="0 0 425.2 425.2" style="enable-background:new 0 0 425.2 425.2;" xml:space="preserve">
<style type="text/css">
	.st0{fill:none;stroke:#FFFFFF;stroke-width:10;stroke-linecap:round;stroke-linejoin:round;stroke-miterlimit:10;}
</style>
<line class="st0" x1="77" y1="110.4" x2="338.5" y2="110.4"/>
<path class="st0" d="M336.2,110.4c32.7,0,59.2-26.5,59.2-59.2"/>
<line class="st0" x1="77" y1="279.4" x2="338.5" y2="279.4"/>
<path class="st0" d="M336.2,279.4c32.7,0,59.2-26.5,59.2-59.2"/>
<line class="st0" x1="77" y1="196.3" x2="338.5" y2="196.3"/>
<path class="st0" d="M336.2,196.3c32.7,0,59.2-26.5,59.2-59.2"/>
<line class="st0" x1="165" y1="153.4" x2="86.7" y2="153.4"/>
<line class="st0" x1="348.2" y1="153.4" x2="194.5" y2="153.4"/>
<path class="st0" d="M89,153.4c-32.7,0-59.2,26.5-59.2,59.2"/>
<line class="st0" x1="249" y1="239.3" x2="86.7" y2="239.3"/>
<line class="st0" x1="348.2" y1="239.3" x2="278" y2="239.3"/>
<path class="st0" d="M89,239.3c-32.7,0-59.2,26.5-59.2,59.2"/>
<line class="st0" x1="125.8" y1="322.2" x2="86.7" y2="322.2"/>
<line class="st0" x1="348.2" y1="322.2" x2="153.7" y2="322.2"/>
<path class="st0" d="M89,322.2c-32.7,0-59.2,26.5-59.2,59.2"/>
</svg>
